<svg aria-hidden="true" style="position: absolute; width: 0; height: 0; overflow: hidden;" version="1.1" xmlns="http://www.w3.org/2000/svg" xmlns:xlink="http://www.w3.org/1999/xlink">
<defs>
<symbol id="icon-rating" viewBox="0 0 181 32">
<path fill="#ffc107" style="fill: var(--color1, #ffc107)" d="M16 2.667l4.12 8.347 9.213 1.347-6.667 6.493 1.573 9.173-8.24-4.333-8.24 4.333 1.573-9.173-6.667-6.493 9.213-1.347 4.12-8.347z"></path>
<path fill="#ffc107" style="fill: var(--color1, #ffc107)" d="M53.333 2.667l4.12 8.347 9.213 1.347-6.667 6.493 1.573 9.173-8.24-4.333-8.24 4.333 1.573-9.173-6.667-6.493 9.213-1.347 4.12-8.347z"></path>
<path fill="#ffc107" style="fill: var(--color1, #ffc107)" d="M90.667 2.667l4.12 8.347 9.213 1.347-6.667 6.493 1.573 9.173-8.24-4.333-8.24 4.333 1.573-9.173-6.667-6.493 9.213-1.347 4.12-8.347z"></path>
<path fill="#ffc107" style="fill: var(--color1, #ffc107)" d="M128 2.667l4.12 8.347 9.213 1.347-6.667 6.493 1.573 9.173-8.24-4.333-8.24 4.333 1.573-9.173-6.667-6.493 9.213-1.347 4.12-8.347z"></path>
<path fill="#ffc107" style="fill: var(--color1, #ffc107)" d="M165.333 2.667l4.12 8.347 9.213 1.347-6.667 6.493 1.573 9.173-8.24-4.333-8.24 4.333 1.573-9.173-6.667-6.493 9.213-1.347 4.12-8.347z"></path>
</symbol>
<symbol id="icon-location" viewBox="0 0 32 32">
<path d="M4.75 11.25c0 5.557 4.243 11.587 7.986 16.797 0.89 1.238 1.742 2.423 2.484 3.536 0.174 0.261 0.467 0.417 0.78 0.417s0.606-0.157 0.78-0.417c0.741-1.112 1.594-2.298 2.484-3.536 3.744-5.21 7.986-11.24 7.986-16.797 0-6.204-5.046-11.25-11.25-11.25s-11.25 5.046-11.25 11.25zM21.625 11.25c0 3.102-2.523 5.625-5.625 5.625s-5.625-2.523-5.625-5.625c0-3.102 2.523-5.625 5.625-5.625s5.625 2.523 5.625 5.625z"></path>
<path d="M16 15c2.071 0 3.75-1.679 3.75-3.75s-1.679-3.75-3.75-3.75c-2.071 0-3.75 1.679-3.75 3.75s1.679 3.75 3.75 3.75z"></path>
</symbol>
<symbol id="icon-arrow" viewBox="0 0 44 32">
<path d="M43.414 17.414c0.781-0.781 0.781-2.047 0-2.828l-12.728-12.728c-0.781-0.781-2.047-0.781-2.828 0s-0.781 2.047 0 2.828l11.314 11.314-11.314 11.314c-0.781 0.781-0.781 2.047 0 2.828s2.047 0.781 2.828 0l12.728-12.728zM0 18h42v-4h-42v4z"></path>
</symbol>
<symbol id="icon-hamburger" viewBox="0 0 32 32">
<path d="M4.667 9.333c-0.368 0-0.667-0.298-0.667-0.667s0.298-0.667 0.667-0.667h22.667c0.368 0 0.667 0.299 0.667 0.667s-0.299 0.667-0.667 0.667h-22.667zM4.667 16c-0.368 0-0.667-0.299-0.667-0.667s0.298-0.667 0.667-0.667h22.667c0.368 0 0.667 0.299 0.667 0.667s-0.299 0.667-0.667 0.667h-22.667zM4.667 22.667c-0.368 0-0.667-0.299-0.667-0.667s0.298-0.667 0.667-0.667h22.667c0.368 0 0.667 0.299 0.667 0.667s-0.299 0.667-0.667 0.667h-22.667z"></path>
</symbol>
<symbol id="icon-twitter" viewBox="0 0 31 32">
<path d="M27.896 7.924c-0.931 0.403-1.893 0.683-2.917 0.807 1.055-0.621 1.862-1.614 2.234-2.824-0.993 0.59-2.079 0.993-3.227 1.241-0.931-0.993-2.265-1.614-3.724-1.614-2.824 0-5.089 2.296-5.089 5.089 0 0.403 0.031 0.776 0.124 1.148-4.22-0.186-7.944-2.234-10.457-5.306-1.8 3.227 0.217 5.896 1.551 6.796-0.807 0-1.614-0.248-2.296-0.621 0 2.513 1.769 4.592 4.065 5.058-0.497 0.155-1.614 0.248-2.296 0.093 0.652 2.017 2.544 3.506 4.748 3.537-1.738 1.365-4.282 2.451-7.54 2.11 2.265 1.458 4.934 2.296 7.82 2.296 9.371 0 14.46-7.758 14.46-14.46 0-0.217 0-0.434-0.031-0.652 1.055-0.776 1.924-1.676 2.576-2.7z"></path>
</symbol>
<symbol id="icon-instagram" viewBox="0 0 31 32">
<path d="M15.82 31.135c-0.103 0-0.205 0-0.309-0-2.432 0.006-4.68-0.056-6.865-0.189-2.004-0.122-3.833-0.814-5.29-2.002-1.406-1.146-2.366-2.696-2.853-4.606-0.424-1.663-0.447-3.295-0.468-4.874-0.016-1.133-0.032-2.475-0.035-3.84 0.003-1.371 0.019-2.713 0.035-3.846 0.022-1.579 0.044-3.211 0.468-4.874 0.487-1.91 1.447-3.46 2.853-4.606 1.457-1.188 3.286-1.88 5.29-2.002 2.186-0.133 4.434-0.195 6.871-0.189 2.433-0.005 4.68 0.056 6.865 0.189 2.004 0.122 3.833 0.814 5.29 2.002 1.406 1.146 2.366 2.696 2.853 4.606 0.424 1.663 0.447 3.295 0.468 4.874 0.016 1.133 0.032 2.475 0.035 3.84v0.006c-0.003 1.365-0.019 2.707-0.035 3.84-0.022 1.579-0.044 3.211-0.468 4.874-0.487 1.91-1.447 3.46-2.853 4.606-1.457 1.188-3.286 1.88-5.29 2.002-2.093 0.127-4.243 0.189-6.562 0.189zM15.512 28.711c2.393 0.006 4.59-0.055 6.724-0.184 1.515-0.092 2.829-0.584 3.905-1.461 0.995-0.811 1.68-1.931 2.036-3.327 0.353-1.384 0.374-2.87 0.393-4.308 0.015-1.125 0.032-2.458 0.035-3.81-0.003-1.352-0.019-2.685-0.035-3.81-0.020-1.437-0.040-2.924-0.393-4.308-0.356-1.396-1.041-2.516-2.036-3.327-1.076-0.877-2.39-1.369-3.905-1.461-2.134-0.13-4.331-0.19-6.718-0.185-2.392-0.006-4.589 0.055-6.724 0.185-1.515 0.092-2.829 0.584-3.905 1.461-0.995 0.811-1.68 1.931-2.036 3.327-0.353 1.384-0.374 2.87-0.393 4.308-0.015 1.126-0.031 2.46-0.035 3.813 0.003 1.347 0.019 2.681 0.035 3.807 0.020 1.437 0.040 2.924 0.393 4.308 0.356 1.396 1.041 2.516 2.036 3.327 1.076 0.877 2.39 1.369 3.905 1.461 2.134 0.13 4.332 0.191 6.718 0.185zM15.454 23.196c-4.177 0-7.576-3.398-7.576-7.576s3.399-7.576 7.576-7.576c4.177 0 7.576 3.398 7.576 7.576s-3.398 7.576-7.576 7.576zM15.454 10.469c-2.84 0-5.152 2.311-5.152 5.152s2.311 5.151 5.152 5.151c2.841 0 5.152-2.311 5.152-5.152s-2.311-5.152-5.152-5.152zM23.878 5.62c-1.004 0-1.818 0.814-1.818 1.818s0.814 1.818 1.818 1.818c1.004 0 1.818-0.814 1.818-1.818s-0.814-1.818-1.818-1.818z"></path>
</symbol>
<symbol id="icon-pinterest-1" viewBox="0 0 31 32">
<path d="M28.098 16.069c0.187-7.149-5.557-12.956-12.675-12.862-6.837 0.094-12.363 5.744-12.3 12.582 0.031 4.901 2.903 9.116 7.024 11.145 0.25 0.125 0.531-0.062 0.499-0.343-0.031-0.812 0-1.655 0.156-2.341s0.78-3.309 1.186-5.026c0.187-0.843 0.219-1.717 0.062-2.56-0.062-0.281-0.094-0.593-0.094-0.968 0-1.842 1.061-3.216 2.404-3.216 1.124 0 1.686 0.843 1.686 1.873 0 1.124-0.718 2.841-1.093 4.433-0.312 1.311 0.656 2.404 1.967 2.404 2.373 0 4.183-2.498 4.183-6.088 0-3.184-2.279-5.401-5.557-5.401-3.778 0-5.994 2.841-5.994 5.776 0 1.155 0.437 2.373 0.999 3.028 0.094 0.125 0.125 0.25 0.094 0.375-0.094 0.406-0.312 1.311-0.375 1.499-0.062 0.25-0.187 0.281-0.437 0.187-1.655-0.812-2.716-3.247-2.716-5.182 0-4.183 3.028-8.023 8.773-8.023 4.589 0 8.18 3.278 8.18 7.68 0 4.589-2.872 8.242-6.899 8.242-1.061 0-2.061-0.437-2.654-1.030-0.187-0.187-0.499-0.094-0.562 0.156-0.219 0.78-0.531 2.092-0.656 2.498-0.187 0.749-0.593 1.623-1.030 2.404-0.125 0.187 0 0.468 0.219 0.5 1.030 0.25 2.092 0.406 3.184 0.375 6.619-0.062 12.238-5.557 12.425-12.113z"></path>
</symbol>
<symbol id="icon-logo" viewBox="0 0 196 32">
<path d="M41.235 8.58v18.288h-3.445v-18.288h-5.631v-2.927h14.677v2.927h-5.602z"></path>
<path d="M49.92 15.318c0.338-0.908 0.782-1.58 1.332-2.014 0.56-0.435 1.25-0.652 2.070-0.652 0.444 0 0.878 0.053 1.303 0.159 0.434 0.106 0.859 0.261 1.274 0.464l-1.129 2.666c-0.27-0.193-0.565-0.333-0.883-0.42-0.309-0.097-0.656-0.145-1.042-0.145-1.042 0-1.79 0.42-2.244 1.261-0.453 0.831-0.68 2.232-0.68 4.203v6.028h-3.141v-13.767h3.141v2.217z"></path>
<path d="M70.604 26.868h-3.141v-1.782c-0.56 0.792-1.216 1.382-1.969 1.768-0.743 0.386-1.597 0.58-2.562 0.58-1.94 0-3.469-0.662-4.588-1.985-1.11-1.333-1.665-3.154-1.665-5.463 0-2.193 0.569-3.961 1.708-5.304 1.139-1.353 2.625-2.029 4.458-2.029 1.119 0 2.075 0.237 2.866 0.71 0.801 0.464 1.385 1.135 1.751 2.014v-2.246h3.141v13.738zM67.55 19.956c0-1.42-0.333-2.526-0.999-3.319-0.656-0.792-1.578-1.188-2.765-1.188s-2.123 0.411-2.808 1.232c-0.676 0.812-1.013 1.942-1.013 3.391 0 1.459 0.328 2.584 0.984 3.377s1.583 1.188 2.779 1.188c1.129 0 2.046-0.43 2.75-1.29 0.714-0.86 1.071-1.99 1.071-3.391z"></path>
<path d="M79.766 27.694l-7.194-14.564h3.431l2.996 6.912c0.097 0.213 0.212 0.531 0.348 0.956s0.275 0.932 0.419 1.522c0.097-0.415 0.208-0.826 0.333-1.232 0.135-0.415 0.294-0.831 0.478-1.246l2.981-6.912h3.416l-7.209 14.564z"></path>
<path d="M102.173 20.463h-10.972c0.078 1.285 0.459 2.29 1.144 3.014 0.685 0.715 1.597 1.072 2.736 1.072 1.013 0 1.857-0.212 2.533-0.638s1.264-1.111 1.766-2.058l2.648 1.478c-0.771 1.381-1.727 2.41-2.866 3.087s-2.475 1.014-4.010 1.014c-2.2 0-3.952-0.671-5.254-2.014s-1.954-3.135-1.954-5.376c0-2.154 0.671-3.922 2.012-5.304 1.351-1.391 3.083-2.087 5.196-2.087 2.21 0 3.933 0.633 5.168 1.898s1.853 3.038 1.853 5.318v0.594zM98.917 18.347c-0.126-0.985-0.502-1.734-1.13-2.246-0.627-0.522-1.486-0.783-2.576-0.783-1.032 0-1.862 0.251-2.489 0.754s-1.067 1.261-1.317 2.275h7.513z"></path>
<path d="M105.604 26.868v-22.462h3.141v22.462h-3.141z"></path>
<path d="M113.391 26.868v-22.462h3.141v22.462h-3.141z"></path>
<path d="M120.758 7.189c0-0.531 0.193-0.99 0.579-1.377 0.396-0.386 0.863-0.58 1.404-0.58 0.56 0 1.023 0.188 1.39 0.565 0.376 0.367 0.564 0.831 0.564 1.391s-0.188 1.034-0.564 1.42c-0.376 0.377-0.84 0.565-1.39 0.565-0.541 0-1.008-0.193-1.404-0.58-0.386-0.396-0.579-0.865-0.579-1.406zM121.179 26.868v-13.738h3.141v13.738h-3.141z"></path>
<path d="M141.733 26.868h-3.141v-1.782c-0.56 0.792-1.216 1.382-1.968 1.768-0.743 0.386-1.597 0.58-2.562 0.58-1.94 0-3.469-0.662-4.588-1.985-1.11-1.333-1.665-3.154-1.665-5.463 0-2.193 0.569-3.961 1.708-5.304 1.138-1.353 2.625-2.029 4.458-2.029 1.12 0 2.075 0.237 2.866 0.71 0.801 0.464 1.385 1.135 1.751 2.014v-2.246h3.141v13.738zM138.678 19.956c0-1.42-0.333-2.526-0.999-3.319-0.656-0.792-1.578-1.188-2.765-1.188s-2.123 0.411-2.808 1.232c-0.675 0.812-1.013 1.942-1.013 3.391 0 1.459 0.328 2.584 0.984 3.377s1.583 1.188 2.779 1.188c1.13 0 2.046-0.43 2.751-1.29 0.714-0.86 1.071-1.99 1.071-3.391z"></path>
<path d="M146.075 26.868v-13.738h2.953v2.246c0.628-0.947 1.366-1.637 2.215-2.072s1.882-0.652 3.098-0.652c1.023 0 1.891 0.164 2.605 0.493 0.724 0.319 1.289 0.797 1.694 1.435 0.241 0.377 0.415 0.816 0.521 1.319s0.159 1.382 0.159 2.637v8.333h-3.17v-7.057c0-1.807-0.222-3.005-0.666-3.594-0.434-0.599-1.211-0.898-2.331-0.898-0.733 0-1.389 0.135-1.968 0.406-0.569 0.271-1.018 0.652-1.346 1.145-0.232 0.328-0.396 0.754-0.492 1.275-0.086 0.512-0.13 1.333-0.13 2.464v6.26h-3.141z"></path>
<path d="M9.834 22.844l4.028 3.971 4.028-3.971-4.028-3.971-4.028 3.971zM13.862 3.571v0.006c-1.153 0-2.306 0.434-3.184 1.3l-0.004-0.004c-0.876 0.866-1.317 2.005-1.317 3.143 0 1.141 0.438 2.277 1.312 3.139h0.006l3.186 3.139 3.184-3.139h0.006c0.88-0.868 1.32-2.005 1.32-3.139h-0.006c0-1.137-0.44-2.273-1.319-3.139-0.884-0.87-2.037-1.306-3.186-1.306zM20.212 25.133l-6.35 6.26-6.35-6.26-5.189 5.116-2.322-2.289 11.542-11.376-3.184-3.139 0.004-0.004c-1.524-1.501-2.286-3.466-2.286-5.424 0-1.961 0.761-3.923 2.282-5.422v-0.004c1.52-1.499 3.513-2.249 5.504-2.249v0.006c1.995 0 3.99 0.748 5.506 2.243 1.52 1.499 2.28 3.464 2.28 5.428h-0.006c0 1.963-0.759 3.925-2.278 5.424l0.004 0.004-3.184 3.137 11.54 11.376-2.322 2.289-5.189-5.116z"></path>
</symbol>
</defs>
</svg>
